<svg width="111" height="79" viewBox="0 0 111 79" fill="none" xmlns="http://www.w3.org/2000/svg">
<path d="M0 50.8571H36.4566V69H54.649V36.2143H18.2643L54.649 0H36.4566L0 36.2143V50.8571Z" fill="black"/>
<path d="M62.4868 18.1429L80.6791 0H62.4868V18.1429Z" fill="black"/>
<path d="M80.6791 18.1429L62.4868 36.2143V54.2857H80.6791V36.2143L98.9434 18.1429V0H80.6791V18.1429Z" fill="black"/>
<path d="M98.9431 36.2146L80.6788 54.2861H98.9431V36.2146Z" fill="black"/>
<path d="M72.704 63.608L71.072 66.04C70.56 65.56 69.888 65.24 69.12 65.24C68.544 65.24 67.712 65.576 67.616 66.248C67.504 66.952 68.304 67.224 68.816 67.4L69.584 67.64C71.184 68.136 72.352 68.984 72.032 70.936C71.84 72.136 71.36 73.368 70.272 74.184C69.2 74.984 67.888 75.32 66.672 75.32C65.152 75.32 63.744 74.808 62.64 73.944L64.384 71.416C65.072 72.104 65.904 72.664 66.976 72.664C67.712 72.664 68.56 72.296 68.688 71.448C68.832 70.568 67.648 70.264 67.008 70.072C65.12 69.512 63.904 69 64.288 66.664C64.672 64.216 66.672 62.616 69.088 62.616C70.304 62.616 71.728 63 72.704 63.608ZM79.1714 65.592L77.6834 75H74.5474L76.0354 65.592H73.4434L73.8594 62.936H82.1794L81.7634 65.592H79.1714ZM88.1895 72.904H83.8695L82.7015 75H79.3735L85.9175 62.936H89.3415L91.9815 75H88.6375L88.1895 72.904ZM87.7255 70.504L87.0535 66.664H87.0215L85.1175 70.504H87.7255ZM101.378 65.592H97.5855L97.2655 67.608H100.706L100.29 70.264H96.8495L96.0975 75H92.9615L94.8655 62.936H101.794L101.378 65.592ZM110.049 65.592H106.257L105.937 67.608H109.377L108.961 70.264H105.521L104.769 75H101.633L103.537 62.936H110.465L110.049 65.592Z" fill="black"/>
</svg>
